<?xml version="1.0"?>
<svg width="50" height="36" xmlns="http://www.w3.org/2000/svg" xmlns:svg="http://www.w3.org/2000/svg" xmlns:xlink="http://www.w3.org/1999/xlink">
 <!--! Font Awesome Pro 6.4.2 by @fontawesome - https://fontawesome.com License - https://fontawesome.com/license (Commercial License) Copyright 2023 Fonticons, Inc. -->
 <defs>
  <symbol id="svg_2" viewBox="0 0 640 512" xmlns="http://www.w3.org/2000/svg">
   <!--! Font Awesome Pro 6.4.2 by @fontawesome - https://fontawesome.com License - https://fontawesome.com/license (Commercial License) Copyright 2023 Fonticons, Inc. -->
   <path d="m48,32c-26.5,0 -48,21.5 -48,48l0,256c0,26.5 21.5,48 48,48l17.1,0c7.8,-54.3 54.4,-96 110.9,-96s103.1,41.7 110.9,96l201.1,0l8,0l112,0c17.7,0 32,-14.3 32,-32s-14.3,-32 -32,-32l-64,0l0,-240c0,-26.5 -21.5,-48 -48,-48l-448,0zm32,64c8.8,0 16,7.2 16,16l0,131.2c-11.4,5.9 -22.2,12.9 -32,21l0,-152.2c0,-8.8 7.2,-16 16,-16zm96,128c-5.4,0 -10.7,0.2 -16,0.7l0,-112.7c0,-8.8 7.2,-16 16,-16s16,7.2 16,16l0,112.7c-5.3,-0.5 -10.6,-0.7 -16,-0.7zm80,19.2l0,-131.2c0,-8.8 7.2,-16 16,-16s16,7.2 16,16l0,152.2c-9.8,-8.1 -20.6,-15.2 -32,-21zm112,-147.2c8.8,0 16,7.2 16,16l0,192c0,8.8 -7.2,16 -16,16s-16,-7.2 -16,-16l0,-192c0,-8.8 7.2,-16 16,-16zm112,16l0,192c0,8.8 -7.2,16 -16,16s-16,-7.2 -16,-16l0,-192c0,-8.8 7.2,-16 16,-16s16,7.2 16,16zm-304,368a80,80 0 1 0 0,-160a80,80 0 1 0 0,160zm0,-112a32,32 0 1 1 0,64a32,32 0 1 1 0,-64z"/>
  </symbol>
 </defs>
 <g class="layer">
  <title>Layer 1</title>
  <path d="m29.22,10.47l2.32,0l0,4.08l-4.96,0l1.34,-3.23c0.21,-0.51 0.73,-0.86 1.3,-0.86zm4.43,4.08l0,-4.08l3.57,0c0.43,0 0.83,0.19 1.1,0.51l2.95,3.57l-7.62,0zm11.27,0.04l-4.4,-5.32c-0.8,-0.97 -2.01,-1.53 -3.3,-1.53l-8,0c-1.73,0 -3.28,1.02 -3.92,2.57l-1.83,4.43c-1.05,0.4 -1.79,1.38 -1.79,2.54l0,4.76c0,0.75 0.63,1.36 1.41,1.36l1.46,0c0.33,1.93 2.07,3.4 4.16,3.4s3.83,-1.47 4.16,-3.4l5.74,0c0.33,1.93 2.07,3.4 4.16,3.4s3.83,-1.47 4.16,-3.4l1.46,0c0.78,0 1.41,-0.61 1.41,-1.36l0,-2.04c0,-2.77 -2.15,-5.06 -4.92,-5.4zm-4.11,7.44a2.11,2.04 0 1 1 3.98,1.36a2.11,2.04 0 1 1 -3.98,-1.36zm-12.08,-1.36a2.11,2.04 0 1 1 0,4.08a2.11,2.04 0 1 1 0,-4.08z" fill="#21325e" id="svg_1"/>
  <use fill="#21325e" id="svg_3" transform="matrix(0.534294 0 0 0.59385 -148.224 -303.592)" x="276.33" xlink:href="#svg_2" y="523.54"/>
 </g>
</svg>